<?xml version="1.0" encoding="UTF-8" standalone="no"?>
<!DOCTYPE svg PUBLIC "-//W3C//DTD SVG 1.1//EN"
 "http://www.w3.org/Graphics/SVG/1.1/DTD/svg11.dtd">
<!-- Generated by graphviz version 2.40.1 (20161225.0304)
 -->
<!-- Title: G Pages: 1 -->
<svg width="526pt" height="104pt"
 viewBox="0.00 0.00 526.41 104.00" xmlns="http://www.w3.org/2000/svg" xmlns:xlink="http://www.w3.org/1999/xlink">
<g id="graph0" class="graph" transform="scale(1 1) rotate(0) translate(4 100)">
<title>G</title>
<polygon fill="#ffffff" stroke="transparent" points="-4,4 -4,-100 522.4063,-100 522.4063,4 -4,4"/>
<text text-anchor="middle" x="259.2031" y="-6.8" font-family="Century Gothic" font-size="14.00" fill="#000000">Storage service</text>
<!-- http -->
<g id="node1" class="node">
<title>http</title>
<text text-anchor="middle" x="56.0273" y="-54.2" font-family="Century Gothic" font-size="16.00" fill="#000000">Post Request</text>
</g>
<!-- webservice -->
<g id="node2" class="node">
<title>webservice</title>
<polygon fill="none" stroke="#000000" points="354.5824,-77 201.8785,-77 201.8785,-41 354.5824,-41 354.5824,-77"/>
<text text-anchor="middle" x="278.2305" y="-54.2" font-family="Century Gothic" font-size="16.00" fill="#000000">HTTP Web Service</text>
</g>
<!-- http&#45;&gt;webservice -->
<g id="edge1" class="edge">
<title>http&#45;&gt;webservice</title>
<path fill="none" stroke="#000000" d="M112.0986,-59C136.267,-59 165.0835,-59 191.8769,-59"/>
<polygon fill="#000000" stroke="#000000" points="192.0328,-62.5001 202.0328,-59 192.0328,-55.5001 192.0328,-62.5001"/>
</g>
<!-- cloudStorage -->
<g id="node3" class="node">
<title>cloudStorage</title>
<image xlink:href="./assets/Google-Cloud-Storage-Logo.svg" width="74px" height="74px" preserveAspectRatio="xMinYMin meet" x="444.406" y="-96"/>
</g>
<!-- webservice&#45;&gt;cloudStorage -->
<g id="edge2" class="edge">
<title>webservice&#45;&gt;cloudStorage</title>
<path fill="none" stroke="#000000" d="M354.4637,-59C381.2413,-59 410.5297,-59 434.2198,-59"/>
<polygon fill="#000000" stroke="#000000" points="434.3429,-62.5001 444.3428,-59 434.3428,-55.5001 434.3429,-62.5001"/>
</g>
</g>
</svg>
