<?xml version="1.0" encoding="UTF-8" standalone="no"?>
<!DOCTYPE svg PUBLIC "-//W3C//DTD SVG 1.1//EN"
 "http://www.w3.org/Graphics/SVG/1.1/DTD/svg11.dtd">
<!-- Generated by graphviz version 2.40.1 (20161225.0304)
 -->
<!-- Title: G Pages: 1 -->
<svg width="442pt" height="44pt"
 viewBox="0.00 0.00 442.37 44.00" xmlns="http://www.w3.org/2000/svg" xmlns:xlink="http://www.w3.org/1999/xlink">
<g id="graph0" class="graph" transform="scale(1 1) rotate(0) translate(4 40)">
<title>G</title>
<polygon fill="#ffffff" stroke="transparent" points="-4,4 -4,-40 438.3672,-40 438.3672,4 -4,4"/>
<!-- post -->
<g id="node1" class="node">
<title>post</title>
<text text-anchor="middle" x="46.9766" y="-13.2" font-family="Century Gothic" font-size="16.00" fill="#000000">HTTP Post</text>
</g>
<!-- webservice -->
<g id="node2" class="node">
<title>webservice</title>
<polygon fill="none" stroke="#000000" points="290.575,-36 183.7453,-36 183.7453,0 290.575,0 290.575,-36"/>
<text text-anchor="middle" x="237.1602" y="-13.2" font-family="Century Gothic" font-size="16.00" fill="#000000">Web Service</text>
</g>
<!-- post&#45;&gt;webservice -->
<g id="edge1" class="edge">
<title>post&#45;&gt;webservice</title>
<path fill="none" stroke="#000000" d="M93.9882,-18C117.9738,-18 147.4976,-18 173.4918,-18"/>
<polygon fill="#000000" stroke="#000000" points="173.6358,-21.5001 183.6357,-18 173.6357,-14.5001 173.6358,-21.5001"/>
</g>
<!-- cloudStorage -->
<g id="node3" class="node">
<title>cloudStorage</title>
</g>
<!-- webservice&#45;&gt;cloudStorage -->
<g id="edge2" class="edge">
<title>webservice&#45;&gt;cloudStorage</title>
<path fill="none" stroke="#000000" d="M290.5477,-18C316.4183,-18 346.8518,-18 370.1693,-18"/>
<polygon fill="#000000" stroke="#000000" points="370.3401,-21.5001 380.3401,-18 370.34,-14.5001 370.3401,-21.5001"/>
</g>
</g>
</svg>
