<?xml version="1.0" encoding="utf-8"?>
<!-- Generator: Adobe Illustrator 18.1.1, SVG Export Plug-In . SVG Version: 6.00 Build 0)  -->
<svg xmlns="http://www.w3.org/2000/svg" xmlns:xlink="http://www.w3.org/1999/xlink" viewBox="0 0 66 64" fill="#fff" fill-rule="evenodd" stroke="#000" stroke-linecap="round" stroke-linejoin="round" width="300" height="300" font-family="Roboto" font-size="14px" text-anchor="middle"><defs><style type="text/css"></style></defs><use xlink:href="#A" x=".5" y=".5"></use><symbol id="A" overflow="visible"><g stroke="none" fill-rule="nonzero"><path d="M61.373 29.323c-.277.02-.503-.14-.63-.393L50.473 9.935c-.13-.214-.156-.478-.065-.7a2.59 2.59 0 0 0-3.969-2.95 1.09 1.09 0 0 1-.94.19l-20.195-4.05a.7.7 0 0 1-.637-.554c-1-3.357-6.028-1.797-4.945 1.535a.88.88 0 0 1-.136.866L3.563 27.253c-.216.312-.428.445-.747.327-1.372-.118-2.597.86-2.784 2.225a2.54 2.54 0 0 0 2.21 2.922c.315.01.584.232.654.54L11.523 54.5a1.14 1.14 0 0 1 .05.755c-.742 2.43 2.1 4.367 4.082 2.794a.91.91 0 0 1 .697-.204l25.986 2.537a.68.68 0 0 1 .659.453c1.48 3.383 6.506.78 4.593-2.383-.16-.22-.164-.52-.008-.745l13.113-22.764c.117-.272.4-.442.687-.425 3.503.04 3.523-5.235-.008-5.185zM21.247 8.793l.735-3.17c.06-.267.143-.428.488-.448.65-.033 1.253-.347 1.654-.863.16-.252.458-.317.717-.216L45.14 8.148c.055.01.108.038.315.116l-6.388 2.768-19.555 8.512c-.206.083-.403.277-.64.076-.22-.2-.058-.395-.013-.6l2.4-10.263zm-1.46-1.777l.106.07-2.73 11.688a.67.67 0 0 1-.503.559 2.44 2.44 0 0 0-1.784 2.19c.003.257-.13.498-.352.63l-8.653 5.1a1.07 1.07 0 0 1-.216.05zM12.954 52.62l-.126.503-8.288-20.38a.88.88 0 0 1 .136-1.077 1.94 1.94 0 0 0 .481-1.485.74.74 0 0 1 .461-.795l9.476-5.587c.176-.106.352-.347.614-.1.234.22.554.327.496.8l-.85 7.306-2.4 20.844zm2.962 1.6c-.256-.32-.605-.55-1-.662-.234-.076-.393-.17-.315-.4l.742-6.478 1.485-12.9 1.027-9.025c.063-.596.503-.58.856-.798s.468.108.63.252l21.5 18.694c.466.483.332 1.28-.264 1.586l-23.96 9.886c-.284.118-.478.15-.705-.14zm28.05 3.398a1.11 1.11 0 0 0-.478.413c-.332.697-.906.612-1.5.554L17.103 56.15l-.04-.116 3.86-1.606 20.184-8.33c.378-.16.614-.02.966.1 1.007.352 1.027 1.133 1.117 1.956l1.012 8.892c.03.252.025.445-.24.584zM43.1 41.254c-.04.317-.2.408-.44.523s-.56.058-.735-.16L20.403 22.903a1.79 1.79 0 0 1-.438-1.573c.1-.227.385-.252.594-.342l24.833-10.82c.362-.164.644-.252.924.136a1.21 1.21 0 0 0 .521.36c.244.1.345.232.3.395l-.72 5.487-3.267 24.722zm2.823 15.83L45.53 53.8l-.725-6.292c-.07-.58-.118-1.057.493-1.5.663-.5.983-1.35.825-2.172-.025-.24-.02-.4.194-.536l12.16-8.28c.063-.02.126-.035.2-.045zm13.208-26.4a1.89 1.89 0 0 0-.307 1.465.68.68 0 0 1-.355.78l-13.03 8.925c-.143.1-.262.282-.503.146-.264-.15-.17-.367-.143-.56l3.956-29.92.15-.805 2.353 4.32 7.87 14.554c.26.315.267.77.015 1.092z" fill="#343433"></path><path d="M47.096 11.058c.055-.16-.045-.297-.3-.395a1.21 1.21 0 0 1-.521-.36c-.277-.385-.56-.302-.924-.136l-3.86 1.686q-10.47 4.563-20.945 9.128c-.206.1-.483.1-.594.34a1.79 1.79 0 0 0 .438 1.573L41.933 41.62c.176.22.483.288.735.16.252-.116.403-.2.44-.523l1.64-12.423q.815-6.148 1.623-12.3l.72-5.487z" fill="#fefefe"></path><path d="M40.845 42.907Q30.1 33.57 19.347 24.233c-.166-.143-.302-.473-.63-.252s-.8.2-.856.798l-1.027 9.025-2.227 19.38c-.08.22.08.317.315.4.394.1.743.343 1 .662.22.292.415.257.705.14q11.98-4.948 23.96-9.883a1 1 0 0 0 .264-1.583z" fill="#f4f5f6"></path><path d="M51.254 15.033l-2.353-4.32-.15.805-1.334 10.208q-1.3 9.856-2.617 19.7c-.025.194-.12.413.143.56.242.136.357-.05.503-.146l13.032-8.927a.68.68 0 0 0 .355-.78c-.104-.5.007-1.04.307-1.465a.87.87 0 0 0-.015-1.092q-3.95-7.273-7.87-14.554z" fill="#dedfdf"></path><path d="M18.87 19.653c.24.2.433.008.642-.076l.294-.126q9.632-4.193 19.26-8.388l6.388-2.77-.315-.116q-10.15-2.026-20.3-4.057a.61.61 0 0 0-.717.216 2.23 2.23 0 0 1-1.654.863c-.347.025-.428.18-.488.448q-.362 1.586-.735 3.17l-2.39 10.266c-.045.194-.2.403.013.6zM43.196 48.16c-.1-.823-.113-1.606-1.117-1.956-.352-.126-.586-.262-.966-.1Q31.026 50.282 20.93 54.41l-3.86 1.606.04.116 24.884 2.452c.604.06 1.175.146 1.5-.554.115-.18.28-.325.476-.413.264-.14.27-.327.24-.584l-1.012-8.892z" fill="#d1d1d1"></path><path d="M16.208 24.472c.058-.466-.264-.57-.496-.8-.257-.247-.435-.005-.614.1l-9.476 5.6a.74.74 0 0 0-.46.795 1.94 1.94 0 0 1-.48 1.485c-.287.286-.343.73-.136 1.077q2.7 6.594 5.368 13.195l2.92 7.188a4.89 4.89 0 0 0 .126-.478q.594-5.114 1.183-10.23.612-5.305 1.218-10.613l.85-7.306z" fill="#d8d8d8"></path><path d="M46.327 43.315c-.216.15-.22.297-.194.536a2.22 2.22 0 0 1-.825 2.17c-.612.428-.564.906-.493 1.5l.725 6.292.403 3.282 12.734-22.112a1.28 1.28 0 0 0-.19.045q-6.075 4.158-12.15 8.3zM14.515 22.153a.72.72 0 0 0 .355-.629c.07-1.035.785-1.912 1.784-2.2.268-.064.47-.286.506-.56q1.36-5.844 2.73-11.688l-.106-.07L5.646 27.293c.073-.01.146-.025.216-.048q4.324-2.547 8.653-5.1z" fill="#b2b2b2"></path></g></symbol></svg>
